<mxfile host="app.diagrams.net" modified="2024-06-13T09:57:05.738Z" agent="Mozilla/5.0 (Macintosh; Intel Mac OS X 10_15_7) AppleWebKit/537.36 (KHTML, like Gecko) Chrome/124.0.0.0 Safari/537.36" etag="GUqHnNHnfClJ0gJvPOvk" version="24.5.4" type="github">
  <diagram id="ZAkZtaQgdhomtzCDTqjJ" name="第 1 页">
    <mxGraphModel dx="1434" dy="795" grid="0" gridSize="10" guides="1" tooltips="1" connect="1" arrows="1" fold="1" page="1" pageScale="1" pageWidth="827" pageHeight="1169" math="0" shadow="0">
      <root>
        <mxCell id="0" />
        <mxCell id="1" parent="0" />
        <mxCell id="cktxvIPfC9cbaZ0lTaEM-18" value="" style="rounded=1;whiteSpace=wrap;html=1;fillColor=#ffe6cc;strokeColor=#d79b00;labelBackgroundColor=none;" vertex="1" parent="1">
          <mxGeometry x="163" y="283" width="406" height="354" as="geometry" />
        </mxCell>
        <mxCell id="cktxvIPfC9cbaZ0lTaEM-15" value="" style="edgeStyle=orthogonalEdgeStyle;rounded=0;orthogonalLoop=1;jettySize=auto;html=1;" edge="1" parent="1" source="cktxvIPfC9cbaZ0lTaEM-1" target="cktxvIPfC9cbaZ0lTaEM-14">
          <mxGeometry relative="1" as="geometry" />
        </mxCell>
        <mxCell id="cktxvIPfC9cbaZ0lTaEM-1" value="" style="rounded=0;whiteSpace=wrap;html=1;fillColor=#fff2cc;strokeColor=#d6b656;" vertex="1" parent="1">
          <mxGeometry x="195" y="313" width="172" height="85" as="geometry" />
        </mxCell>
        <mxCell id="cktxvIPfC9cbaZ0lTaEM-2" value="cache" style="text;strokeColor=none;align=center;fillColor=none;html=1;verticalAlign=middle;whiteSpace=wrap;rounded=0;" vertex="1" parent="1">
          <mxGeometry x="197" y="318" width="60" height="30" as="geometry" />
        </mxCell>
        <mxCell id="cktxvIPfC9cbaZ0lTaEM-5" value="informer" style="rounded=1;whiteSpace=wrap;html=1;fillColor=#dae8fc;strokeColor=#6c8ebf;" vertex="1" parent="1">
          <mxGeometry x="240" y="345" width="92" height="41" as="geometry" />
        </mxCell>
        <mxCell id="cktxvIPfC9cbaZ0lTaEM-13" style="edgeStyle=orthogonalEdgeStyle;rounded=0;orthogonalLoop=1;jettySize=auto;html=1;entryX=0.5;entryY=1;entryDx=0;entryDy=0;" edge="1" parent="1" source="cktxvIPfC9cbaZ0lTaEM-6" target="cktxvIPfC9cbaZ0lTaEM-1">
          <mxGeometry relative="1" as="geometry" />
        </mxCell>
        <mxCell id="cktxvIPfC9cbaZ0lTaEM-20" value="" style="edgeStyle=orthogonalEdgeStyle;rounded=0;orthogonalLoop=1;jettySize=auto;html=1;" edge="1" parent="1" source="cktxvIPfC9cbaZ0lTaEM-6" target="cktxvIPfC9cbaZ0lTaEM-19">
          <mxGeometry relative="1" as="geometry">
            <Array as="points">
              <mxPoint x="277" y="573" />
              <mxPoint x="277" y="573" />
            </Array>
          </mxGeometry>
        </mxCell>
        <mxCell id="cktxvIPfC9cbaZ0lTaEM-6" value="" style="rounded=0;whiteSpace=wrap;html=1;fillColor=#fff2cc;strokeColor=#d6b656;" vertex="1" parent="1">
          <mxGeometry x="195" y="446" width="172" height="84" as="geometry" />
        </mxCell>
        <mxCell id="cktxvIPfC9cbaZ0lTaEM-7" value="controller" style="text;strokeColor=none;align=center;fillColor=none;html=1;verticalAlign=middle;whiteSpace=wrap;rounded=0;" vertex="1" parent="1">
          <mxGeometry x="197" y="451" width="60" height="30" as="geometry" />
        </mxCell>
        <mxCell id="cktxvIPfC9cbaZ0lTaEM-8" value="watch" style="rounded=1;whiteSpace=wrap;html=1;fillColor=#dae8fc;strokeColor=#6c8ebf;" vertex="1" parent="1">
          <mxGeometry x="259" y="454.5" width="68" height="23" as="geometry" />
        </mxCell>
        <mxCell id="cktxvIPfC9cbaZ0lTaEM-10" value="" style="edgeStyle=orthogonalEdgeStyle;rounded=0;orthogonalLoop=1;jettySize=auto;html=1;" edge="1" parent="1" source="cktxvIPfC9cbaZ0lTaEM-9" target="cktxvIPfC9cbaZ0lTaEM-8">
          <mxGeometry relative="1" as="geometry" />
        </mxCell>
        <mxCell id="cktxvIPfC9cbaZ0lTaEM-9" value="queue" style="rounded=0;whiteSpace=wrap;html=1;" vertex="1" parent="1">
          <mxGeometry x="269" y="498" width="48" height="23" as="geometry" />
        </mxCell>
        <mxCell id="cktxvIPfC9cbaZ0lTaEM-27" style="edgeStyle=orthogonalEdgeStyle;rounded=0;orthogonalLoop=1;jettySize=auto;html=1;" edge="1" parent="1" source="cktxvIPfC9cbaZ0lTaEM-14">
          <mxGeometry relative="1" as="geometry">
            <mxPoint x="476.5" y="556" as="targetPoint" />
          </mxGeometry>
        </mxCell>
        <mxCell id="cktxvIPfC9cbaZ0lTaEM-30" style="edgeStyle=orthogonalEdgeStyle;rounded=0;orthogonalLoop=1;jettySize=auto;html=1;" edge="1" parent="1" source="cktxvIPfC9cbaZ0lTaEM-14">
          <mxGeometry relative="1" as="geometry">
            <mxPoint x="476.5" y="248" as="targetPoint" />
          </mxGeometry>
        </mxCell>
        <mxCell id="cktxvIPfC9cbaZ0lTaEM-14" value="client" style="rounded=0;whiteSpace=wrap;html=1;fillColor=#fff2cc;strokeColor=#d6b656;" vertex="1" parent="1">
          <mxGeometry x="426" y="327" width="101" height="57" as="geometry" />
        </mxCell>
        <mxCell id="cktxvIPfC9cbaZ0lTaEM-22" style="edgeStyle=orthogonalEdgeStyle;rounded=0;orthogonalLoop=1;jettySize=auto;html=1;entryX=0.5;entryY=1;entryDx=0;entryDy=0;" edge="1" parent="1" source="cktxvIPfC9cbaZ0lTaEM-19" target="cktxvIPfC9cbaZ0lTaEM-14">
          <mxGeometry relative="1" as="geometry">
            <Array as="points">
              <mxPoint x="477" y="467" />
            </Array>
          </mxGeometry>
        </mxCell>
        <mxCell id="cktxvIPfC9cbaZ0lTaEM-26" style="edgeStyle=orthogonalEdgeStyle;rounded=0;orthogonalLoop=1;jettySize=auto;html=1;entryX=0.75;entryY=1;entryDx=0;entryDy=0;exitX=0.39;exitY=0.017;exitDx=0;exitDy=0;exitPerimeter=0;" edge="1" parent="1" source="cktxvIPfC9cbaZ0lTaEM-19" target="cktxvIPfC9cbaZ0lTaEM-6">
          <mxGeometry relative="1" as="geometry">
            <Array as="points">
              <mxPoint x="324" y="550" />
            </Array>
          </mxGeometry>
        </mxCell>
        <mxCell id="cktxvIPfC9cbaZ0lTaEM-19" value="reconcile" style="rounded=0;whiteSpace=wrap;html=1;fillColor=#fff2cc;strokeColor=#d6b656;" vertex="1" parent="1">
          <mxGeometry x="194" y="555" width="333" height="59" as="geometry" />
        </mxCell>
        <mxCell id="cktxvIPfC9cbaZ0lTaEM-28" value="apiserver" style="rounded=1;whiteSpace=wrap;html=1;fillColor=#ffe6cc;strokeColor=#d79b00;" vertex="1" parent="1">
          <mxGeometry x="163" y="186" width="406" height="60" as="geometry" />
        </mxCell>
        <mxCell id="cktxvIPfC9cbaZ0lTaEM-29" style="edgeStyle=orthogonalEdgeStyle;rounded=0;orthogonalLoop=1;jettySize=auto;html=1;entryX=0.291;entryY=1.067;entryDx=0;entryDy=0;entryPerimeter=0;" edge="1" parent="1" source="cktxvIPfC9cbaZ0lTaEM-1" target="cktxvIPfC9cbaZ0lTaEM-28">
          <mxGeometry relative="1" as="geometry" />
        </mxCell>
      </root>
    </mxGraphModel>
  </diagram>
</mxfile>
